# Exported from Wings 3D 1.4.1
mtllib Torus.mtl
o torus2
#128 vertices, 256 faces
v 1.00000000 0.0000000e+0 0.0000000e+0
v 0.92387953 -0.38268343 2.3432602e-17
v 0.70710678 -0.70710678 4.3297803e-17
v 0.38268343 -0.92387953 5.6571306e-17
v 6.1232340e-17 -1.00000000 6.1232340e-17
v -0.38268343 -0.92387953 5.6571306e-17
v -0.70710678 -0.70710678 4.3297803e-17
v -0.92387953 -0.38268343 2.3432602e-17
v -1.00000000 -1.2246468e-16 7.4987989e-33
v -0.92387953 0.38268343 -2.3432602e-17
v -0.70710678 0.70710678 -4.3297803e-17
v -0.38268343 0.92387953 -5.6571306e-17
v -1.8369702e-16 1.00000000 -6.1232340e-17
v 0.38268343 0.92387953 -5.6571306e-17
v 0.70710678 0.70710678 -4.3297803e-17
v 0.92387953 0.38268343 -2.3432602e-17
v 0.94142136 8.6595606e-18 0.14142136
v 0.86975992 -0.36026636 0.14142136
v 0.66568542 -0.66568542 0.14142136
v 0.36026636 -0.86975992 0.14142136
v 5.7645433e-17 -0.94142136 0.14142136
v -0.36026636 -0.86975992 0.14142136
v -0.66568542 -0.66568542 0.14142136
v -0.86975992 -0.36026636 0.14142136
v -0.94142136 -1.0663130e-16 0.14142136
v -0.86975992 0.36026636 0.14142136
v -0.66568542 0.66568542 0.14142136
v -0.36026636 0.86975992 0.14142136
v -1.7293630e-16 0.94142136 0.14142136
v 0.36026636 0.86975992 0.14142136
v 0.66568542 0.66568542 0.14142136
v 0.86975992 0.36026636 0.14142136
v 0.80000000 1.2246468e-17 0.20000000
v 0.73910363 -0.30614675 0.20000000
v 0.56568542 -0.56568542 0.20000000
v 0.30614675 -0.73910363 0.20000000
v 4.8985872e-17 -0.80000000 0.20000000
v -0.30614675 -0.73910363 0.20000000
v -0.56568542 -0.56568542 0.20000000
v -0.73910363 -0.30614675 0.20000000
v -0.80000000 -8.5725276e-17 0.20000000
v -0.73910363 0.30614675 0.20000000
v -0.56568542 0.56568542 0.20000000
v -0.30614675 0.73910363 0.20000000
v -1.4695762e-16 0.80000000 0.20000000
v 0.30614675 0.73910363 0.20000000
v 0.56568542 0.56568542 0.20000000
v 0.73910363 0.30614675 0.20000000
v 0.65857864 8.6595606e-18 0.14142136
v 0.60844733 -0.25202714 0.14142136
v 0.46568542 -0.46568542 0.14142136
v 0.25202714 -0.60844733 0.14142136
v 4.0326311e-17 -0.65857864 0.14142136
v -0.25202714 -0.60844733 0.14142136
v -0.46568542 -0.46568542 0.14142136
v -0.60844733 -0.25202714 0.14142136
v -0.65857864 -7.1993062e-17 0.14142136
v -0.60844733 0.25202714 0.14142136
v -0.46568542 0.46568542 0.14142136
v -0.25202714 0.60844733 0.14142136
v -1.2097893e-16 0.65857864 0.14142136
v 0.25202714 0.60844733 0.14142136
v 0.46568542 0.46568542 0.14142136
v 0.60844733 0.25202714 0.14142136
v 0.60000000 1.4997598e-33 2.4492936e-17
v 0.55432772 -0.22961006 3.8552497e-17
v 0.42426407 -0.42426407 5.0471618e-17
v 0.22961006 -0.55432772 5.8435719e-17
v 3.6739404e-17 -0.60000000 6.1232340e-17
v -0.22961006 -0.55432772 5.8435719e-17
v -0.42426407 -0.42426407 5.0471618e-17
v -0.55432772 -0.22961006 3.8552497e-17
v -0.60000000 -7.3478808e-17 2.4492936e-17
v -0.55432772 0.22961006 1.0433375e-17
v -0.42426407 0.42426407 -1.4857457e-18
v -0.22961006 0.55432772 -9.4498474e-18
v -1.1021821e-16 0.60000000 -1.2246468e-17
v 0.22961006 0.55432772 -9.4498474e-18
v 0.42426407 0.42426407 -1.4857457e-18
v 0.55432772 0.22961006 1.0433375e-17
v 0.65857864 -8.6595606e-18 -0.14142136
v 0.60844733 -0.25202714 -0.14142136
v 0.46568542 -0.46568542 -0.14142136
v 0.25202714 -0.60844733 -0.14142136
v 4.0326311e-17 -0.65857864 -0.14142136
v -0.25202714 -0.60844733 -0.14142136
v -0.46568542 -0.46568542 -0.14142136
v -0.60844733 -0.25202714 -0.14142136
v -0.65857864 -8.9312183e-17 -0.14142136
v -0.60844733 0.25202714 -0.14142136
v -0.46568542 0.46568542 -0.14142136
v -0.25202714 0.60844733 -0.14142136
v -1.2097893e-16 0.65857864 -0.14142136
v 0.25202714 0.60844733 -0.14142136
v 0.46568542 0.46568542 -0.14142136
v 0.60844733 0.25202714 -0.14142136
v 0.80000000 -1.2246468e-17 -0.20000000
v 0.73910363 -0.30614675 -0.20000000
v 0.56568542 -0.56568542 -0.20000000
v 0.30614675 -0.73910363 -0.20000000
v 4.8985872e-17 -0.80000000 -0.20000000
v -0.30614675 -0.73910363 -0.20000000
v -0.56568542 -0.56568542 -0.20000000
v -0.73910363 -0.30614675 -0.20000000
v -0.80000000 -1.1021821e-16 -0.20000000
v -0.73910363 0.30614675 -0.20000000
v -0.56568542 0.56568542 -0.20000000
v -0.30614675 0.73910363 -0.20000000
v -1.4695762e-16 0.80000000 -0.20000000
v 0.30614675 0.73910363 -0.20000000
v 0.56568542 0.56568542 -0.20000000
v 0.73910363 0.30614675 -0.20000000
v 0.94142136 -8.6595606e-18 -0.14142136
v 0.86975992 -0.36026636 -0.14142136
v 0.66568542 -0.66568542 -0.14142136
v 0.36026636 -0.86975992 -0.14142136
v 5.7645433e-17 -0.94142136 -0.14142136
v -0.36026636 -0.86975992 -0.14142136
v -0.66568542 -0.66568542 -0.14142136
v -0.86975992 -0.36026636 -0.14142136
v -0.94142136 -1.2395043e-16 -0.14142136
v -0.86975992 0.36026636 -0.14142136
v -0.66568542 0.66568542 -0.14142136
v -0.36026636 0.86975992 -0.14142136
v -1.7293630e-16 0.94142136 -0.14142136
v 0.36026636 0.86975992 -0.14142136
v 0.66568542 0.66568542 -0.14142136
v 0.86975992 0.36026636 -0.14142136
vn 1.00000000 3.4363687e-16 -3.0545500e-16
vn 0.92387953 -0.38268343 -1.8327300e-16
vn 0.70710678 -0.70710678 1.0690925e-16
vn 0.38268343 -0.92387953 -1.5272750e-16
vn -7.6363749e-18 -1.00000000 -8.2472849e-16
vn -0.38268343 -0.92387953 -1.4509112e-16
vn -0.70710678 -0.70710678 7.6363749e-17
vn -0.92387953 -0.38268343 -2.5200037e-16
vn -1.00000000 0.0000000e+0 -2.7490950e-16
vn -0.92387953 0.38268343 -2.9781862e-16
vn -0.70710678 0.70710678 0.0000000e+0
vn -0.38268343 0.92387953 -2.3672762e-16
vn -1.2218200e-16 1.00000000 -3.9709150e-16
vn 0.38268343 0.92387953 -2.1381850e-16
vn 0.70710678 0.70710678 -1.5272750e-17
vn 0.92387953 0.38268343 -2.5963675e-16
vn 0.70509498 4.1711815e-17 0.70911288
vn 0.65142282 -0.26982817 0.70911288
vn 0.49857744 -0.49857744 0.70911288
vn 0.26982817 -0.65142282 0.70911288
vn -7.5839664e-18 -0.70509498 0.70911288
vn -0.26982817 -0.65142282 0.70911288
vn -0.49857744 -0.49857744 0.70911288
vn -0.65142282 -0.26982817 0.70911288
vn -0.70509498 -1.7632722e-16 0.70911288
vn -0.65142282 0.26982817 0.70911288
vn -0.49857744 0.49857744 0.70911288
vn -0.26982817 0.65142282 0.70911288
vn -1.0807152e-16 0.70509498 0.70911288
vn 0.26982817 0.65142282 0.70911288
vn 0.49857744 0.49857744 0.70911288
vn 0.65142282 0.26982817 0.70911288
vn -7.5323327e-17 1.1298499e-17 1.00000000
vn 9.0387992e-17 -3.3895497e-17 1.00000000
vn 1.8830832e-16 -4.5193996e-17 1.00000000
vn -1.1298499e-17 1.8830832e-16 1.00000000
vn -1.5064665e-17 4.5193996e-16 1.00000000
vn -3.0129331e-17 1.2051732e-16 1.00000000
vn -6.0258661e-17 -1.1298499e-16 1.00000000
vn -8.2855659e-17 2.2596998e-17 1.00000000
vn 7.5323327e-17 9.7920325e-17 1.00000000
vn 1.6571132e-16 3.5778580e-17 1.00000000
vn 4.5193996e-17 2.6363164e-16 1.00000000
vn -9.4154158e-17 1.8077598e-16 1.00000000
vn -3.7661663e-18 1.8077598e-16 1.00000000
vn -7.1557160e-17 -1.0545266e-16 1.00000000
vn 2.2596998e-17 0.0000000e+0 1.00000000
vn -1.1298499e-16 5.2726329e-17 1.00000000
vn -0.70509498 -2.6543882e-16 0.70911288
vn -0.65142282 0.26982817 0.70911288
vn -0.49857744 0.49857744 0.70911288
vn -0.26982817 0.65142282 0.70911288
vn -3.0335865e-17 0.70509498 0.70911288
vn 0.26982817 0.65142282 0.70911288
vn 0.49857744 0.49857744 0.70911288
vn 0.65142282 0.26982817 0.70911288
vn 0.70509498 -8.5319622e-17 0.70911288
vn 0.65142282 -0.26982817 0.70911288
vn 0.49857744 -0.49857744 0.70911288
vn 0.26982817 -0.65142282 0.70911288
vn 1.4788734e-16 -0.70509498 0.70911288
vn -0.26982817 -0.65142282 0.70911288
vn -0.49857744 -0.49857744 0.70911288
vn -0.65142282 -0.26982817 0.70911288
vn -1.00000000 -6.2618274e-16 4.1236425e-16
vn -0.92387953 0.38268343 3.4363687e-16
vn -0.70710678 0.70710678 6.8727374e-16
vn -0.38268343 0.92387953 6.1854637e-16
vn -3.8181875e-17 1.00000000 3.0545500e-17
vn 0.38268343 0.92387953 7.4836474e-16
vn 0.70710678 0.70710678 1.0690925e-16
vn 0.92387953 0.38268343 2.9018225e-16
vn 1.00000000 -1.6800025e-16 3.5127325e-16
vn 0.92387953 -0.38268343 4.2000062e-16
vn 0.70710678 -0.70710678 3.8181875e-16
vn 0.38268343 -0.92387953 3.2072775e-16
vn 2.9781862e-16 -1.00000000 7.7891024e-16
vn -0.38268343 -0.92387953 4.2763700e-16
vn -0.70710678 -0.70710678 6.1090999e-16
vn -0.92387953 -0.38268343 4.4290975e-16
vn -0.70509498 -7.0151689e-17 -0.70911288
vn -0.65142282 0.26982817 -0.70911288
vn -0.49857744 0.49857744 -0.70911288
vn -0.26982817 0.65142282 -0.70911288
vn -7.5839664e-18 0.70509498 -0.70911288
vn 0.26982817 0.65142282 -0.70911288
vn 0.49857744 0.49857744 -0.70911288
vn 0.65142282 0.26982817 -0.70911288
vn 0.70509498 2.1235106e-16 -0.70911288
vn 0.65142282 -0.26982817 -0.70911288
vn 0.49857744 -0.49857744 -0.70911288
vn 0.26982817 -0.65142282 -0.70911288
vn 1.7253523e-16 -0.70509498 -0.70911288
vn -0.26982817 -0.65142282 -0.70911288
vn -0.49857744 -0.49857744 -0.70911288
vn -0.65142282 -0.26982817 -0.70911288
vn 0.0000000e+0 1.1298499e-17 -1.00000000
vn 1.2051732e-16 -1.3934815e-16 -1.00000000
vn -8.2855659e-17 -9.0387992e-17 -1.00000000
vn -3.7661663e-17 -1.3558199e-16 -1.00000000
vn 1.1298499e-17 1.9584065e-16 -1.00000000
vn -1.5064665e-17 -1.9584065e-16 -1.00000000
vn -7.5323327e-17 -2.3350231e-16 -1.00000000
vn -9.7920325e-17 -1.0733574e-16 -1.00000000
vn -7.5323327e-17 3.7661663e-18 -1.00000000
vn 7.5323327e-18 -7.5323327e-17 -1.00000000
vn -3.7661663e-17 7.5323327e-17 -1.00000000
vn -7.5323327e-17 8.2855659e-17 -1.00000000
vn -2.6363164e-17 1.8077598e-16 -1.00000000
vn -4.5193996e-17 -1.8830832e-16 -1.00000000
vn -1.5064665e-17 -1.5064665e-16 -1.00000000
vn 1.0545266e-16 3.7661663e-17 -1.00000000
vn 0.70509498 5.6879748e-17 -0.70911288
vn 0.65142282 -0.26982817 -0.70911288
vn 0.49857744 -0.49857744 -0.70911288
vn 0.26982817 -0.65142282 -0.70911288
vn -3.7919832e-18 -0.70509498 -0.70911288
vn -0.26982817 -0.65142282 -0.70911288
vn -0.49857744 -0.49857744 -0.70911288
vn -0.65142282 -0.26982817 -0.70911288
vn -0.70509498 -2.3510296e-16 -0.70911288
vn -0.65142282 0.26982817 -0.70911288
vn -0.49857744 0.49857744 -0.70911288
vn -0.26982817 0.65142282 -0.70911288
vn -1.0996751e-16 0.70509498 -0.70911288
vn 0.26982817 0.65142282 -0.70911288
vn 0.49857744 0.49857744 -0.70911288
vn 0.65142282 0.26982817 -0.70911288
g torus2
usemtl default
s 1
f 1//1 17//17 2//2
f 1//1 113//113 16//16
f 2//2 17//17 18//18
f 2//2 19//19 3//3
f 2//2 113//113 1//1
f 2//2 115//115 114//114
f 3//3 19//19 4//4
f 3//3 115//115 2//2
f 4//4 19//19 20//20
f 4//4 21//21 5//5
f 4//4 115//115 3//3
f 4//4 117//117 116//116
f 5//5 21//21 6//6
f 5//5 117//117 4//4
f 6//6 21//21 22//22
f 6//6 23//23 7//7
f 6//6 117//117 5//5
f 6//6 119//119 118//118
f 7//7 23//23 8//8
f 7//7 119//119 6//6
f 8//8 23//23 24//24
f 8//8 25//25 9//9
f 8//8 119//119 7//7
f 8//8 121//121 120//120
f 9//9 25//25 10//10
f 9//9 121//121 8//8
f 10//10 25//25 26//26
f 10//10 27//27 11//11
f 10//10 121//121 9//9
f 10//10 123//123 122//122
f 11//11 27//27 12//12
f 11//11 123//123 10//10
f 12//12 27//27 28//28
f 12//12 29//29 13//13
f 12//12 123//123 11//11
f 12//12 125//125 124//124
f 13//13 29//29 14//14
f 13//13 125//125 12//12
f 14//14 29//29 30//30
f 14//14 31//31 15//15
f 14//14 125//125 13//13
f 14//14 127//127 126//126
f 15//15 31//31 16//16
f 15//15 127//127 14//14
f 16//16 17//17 1//1
f 16//16 31//31 32//32
f 16//16 113//113 128//128
f 16//16 127//127 15//15
f 17//17 34//34 18//18
f 17//17 48//48 33//33
f 18//18 19//19 2//2
f 18//18 34//34 19//19
f 19//19 34//34 35//35
f 19//19 36//36 20//20
f 20//20 21//21 4//4
f 20//20 36//36 21//21
f 21//21 36//36 37//37
f 21//21 38//38 22//22
f 22//22 23//23 6//6
f 22//22 38//38 23//23
f 23//23 38//38 39//39
f 23//23 40//40 24//24
f 24//24 25//25 8//8
f 24//24 40//40 25//25
f 25//25 40//40 41//41
f 25//25 42//42 26//26
f 26//26 27//27 10//10
f 26//26 42//42 27//27
f 27//27 42//42 43//43
f 27//27 44//44 28//28
f 28//28 29//29 12//12
f 28//28 44//44 29//29
f 29//29 44//44 45//45
f 29//29 46//46 30//30
f 30//30 31//31 14//14
f 30//30 46//46 31//31
f 31//31 46//46 47//47
f 31//31 48//48 32//32
f 32//32 17//17 16//16
f 32//32 48//48 17//17
f 33//33 34//34 17//17
f 33//33 49//49 34//34
f 34//34 49//49 50//50
f 34//34 51//51 35//35
f 35//35 36//36 19//19
f 35//35 51//51 36//36
f 36//36 51//51 52//52
f 36//36 53//53 37//37
f 37//37 38//38 21//21
f 37//37 53//53 38//38
f 38//38 53//53 54//54
f 38//38 55//55 39//39
f 39//39 40//40 23//23
f 39//39 55//55 40//40
f 40//40 55//55 56//56
f 40//40 57//57 41//41
f 41//41 42//42 25//25
f 41//41 57//57 42//42
f 42//42 57//57 58//58
f 42//42 59//59 43//43
f 43//43 44//44 27//27
f 43//43 59//59 44//44
f 44//44 59//59 60//60
f 44//44 61//61 45//45
f 45//45 46//46 29//29
f 45//45 61//61 46//46
f 46//46 61//61 62//62
f 46//46 63//63 47//47
f 47//47 48//48 31//31
f 47//47 63//63 48//48
f 48//48 49//49 33//33
f 48//48 63//63 64//64
f 49//49 66//66 50//50
f 49//49 80//80 65//65
f 50//50 51//51 34//34
f 50//50 66//66 51//51
f 51//51 66//66 67//67
f 51//51 68//68 52//52
f 52//52 53//53 36//36
f 52//52 68//68 53//53
f 53//53 68//68 69//69
f 53//53 70//70 54//54
f 54//54 55//55 38//38
f 54//54 70//70 55//55
f 55//55 70//70 71//71
f 55//55 72//72 56//56
f 56//56 57//57 40//40
f 56//56 72//72 57//57
f 57//57 72//72 73//73
f 57//57 74//74 58//58
f 58//58 59//59 42//42
f 58//58 74//74 59//59
f 59//59 74//74 75//75
f 59//59 76//76 60//60
f 60//60 61//61 44//44
f 60//60 76//76 61//61
f 61//61 76//76 77//77
f 61//61 78//78 62//62
f 62//62 63//63 46//46
f 62//62 78//78 63//63
f 63//63 78//78 79//79
f 63//63 80//80 64//64
f 64//64 49//49 48//48
f 64//64 80//80 49//49
f 65//65 66//66 49//49
f 65//65 81//81 66//66
f 66//66 81//81 82//82
f 66//66 83//83 67//67
f 67//67 68//68 51//51
f 67//67 83//83 68//68
f 68//68 83//83 84//84
f 68//68 85//85 69//69
f 69//69 70//70 53//53
f 69//69 85//85 70//70
f 70//70 85//85 86//86
f 70//70 87//87 71//71
f 71//71 72//72 55//55
f 71//71 87//87 72//72
f 72//72 87//87 88//88
f 72//72 89//89 73//73
f 73//73 74//74 57//57
f 73//73 89//89 74//74
f 74//74 89//89 90//90
f 74//74 91//91 75//75
f 75//75 76//76 59//59
f 75//75 91//91 76//76
f 76//76 91//91 92//92
f 76//76 93//93 77//77
f 77//77 78//78 61//61
f 77//77 93//93 78//78
f 78//78 93//93 94//94
f 78//78 95//95 79//79
f 79//79 80//80 63//63
f 79//79 95//95 80//80
f 80//80 81//81 65//65
f 80//80 95//95 96//96
f 81//81 98//98 82//82
f 81//81 112//112 97//97
f 82//82 83//83 66//66
f 82//82 98//98 83//83
f 83//83 98//98 99//99
f 83//83 100//100 84//84
f 84//84 85//85 68//68
f 84//84 100//100 85//85
f 85//85 100//100 101//101
f 85//85 102//102 86//86
f 86//86 87//87 70//70
f 86//86 102//102 87//87
f 87//87 102//102 103//103
f 87//87 104//104 88//88
f 88//88 89//89 72//72
f 88//88 104//104 89//89
f 89//89 104//104 105//105
f 89//89 106//106 90//90
f 90//90 91//91 74//74
f 90//90 106//106 91//91
f 91//91 106//106 107//107
f 91//91 108//108 92//92
f 92//92 93//93 76//76
f 92//92 108//108 93//93
f 93//93 108//108 109//109
f 93//93 110//110 94//94
f 94//94 95//95 78//78
f 94//94 110//110 95//95
f 95//95 110//110 111//111
f 95//95 112//112 96//96
f 96//96 81//81 80//80
f 96//96 112//112 81//81
f 97//97 98//98 81//81
f 97//97 113//113 98//98
f 98//98 113//113 114//114
f 98//98 115//115 99//99
f 99//99 100//100 83//83
f 99//99 115//115 100//100
f 100//100 115//115 116//116
f 100//100 117//117 101//101
f 101//101 102//102 85//85
f 101//101 117//117 102//102
f 102//102 117//117 118//118
f 102//102 119//119 103//103
f 103//103 104//104 87//87
f 103//103 119//119 104//104
f 104//104 119//119 120//120
f 104//104 121//121 105//105
f 105//105 106//106 89//89
f 105//105 121//121 106//106
f 106//106 121//121 122//122
f 106//106 123//123 107//107
f 107//107 108//108 91//91
f 107//107 123//123 108//108
f 108//108 123//123 124//124
f 108//108 125//125 109//109
f 109//109 110//110 93//93
f 109//109 125//125 110//110
f 110//110 125//125 126//126
f 110//110 127//127 111//111
f 111//111 112//112 95//95
f 111//111 127//127 112//112
f 112//112 113//113 97//97
f 112//112 127//127 128//128
f 114//114 113//113 2//2
f 114//114 115//115 98//98
f 116//116 115//115 4//4
f 116//116 117//117 100//100
f 118//118 117//117 6//6
f 118//118 119//119 102//102
f 120//120 119//119 8//8
f 120//120 121//121 104//104
f 122//122 121//121 10//10
f 122//122 123//123 106//106
f 124//124 123//123 12//12
f 124//124 125//125 108//108
f 126//126 125//125 14//14
f 126//126 127//127 110//110
f 128//128 113//113 112//112
f 128//128 127//127 16//16
